<?xml version="1.0" encoding="UTF-8" standalone="no"?>
<!-- Created with Inkscape (http://www.inkscape.org/) -->

<svg
   width="1000"
   height="1000"
   viewBox="0 0 1000 1000"
   version="1.1"
   id="svg1"
   inkscape:version="1.4 (1:1.4+202410161351+e7c3feb100)"
   sodipodi:docname="EpilogLiteLogo.svg"
   inkscape:export-filename="logo.svg"
   inkscape:export-xdpi="96"
   inkscape:export-ydpi="96"
   xmlns:inkscape="http://www.inkscape.org/namespaces/inkscape"
   xmlns:sodipodi="http://sodipodi.sourceforge.net/DTD/sodipodi-0.dtd"
   xmlns:xlink="http://www.w3.org/1999/xlink"
   xmlns="http://www.w3.org/2000/svg"
   xmlns:svg="http://www.w3.org/2000/svg"
   xmlns:rdf="http://www.w3.org/1999/02/22-rdf-syntax-ns#"
   xmlns:cc="http://creativecommons.org/ns#"
   xmlns:dc="http://purl.org/dc/elements/1.1/">
  <title
     id="title22">EpilogLite Logo</title>
  <sodipodi:namedview
     id="namedview1"
     pagecolor="#ffffff"
     bordercolor="#111111"
     borderopacity="1"
     inkscape:showpageshadow="0"
     inkscape:pageopacity="0"
     inkscape:pagecheckerboard="1"
     inkscape:deskcolor="#000000"
     inkscape:document-units="px"
     showgrid="true"
     showguides="true"
     inkscape:zoom="0.43543552"
     inkscape:cx="82.675846"
     inkscape:cy="400.7482"
     inkscape:window-width="1920"
     inkscape:window-height="997"
     inkscape:window-x="0"
     inkscape:window-y="1080"
     inkscape:window-maximized="1"
     inkscape:current-layer="layer1">
    <sodipodi:guide
       position="0,1000"
       orientation="0,1000"
       id="guide1"
       inkscape:locked="false" />
    <sodipodi:guide
       position="1000,1000"
       orientation="1000,0"
       id="guide2"
       inkscape:locked="false" />
    <sodipodi:guide
       position="1000,0"
       orientation="0,-1000"
       id="guide3"
       inkscape:locked="false" />
    <sodipodi:guide
       position="0,0"
       orientation="-1000,0"
       id="guide4"
       inkscape:locked="false" />
    <inkscape:grid
       id="grid4"
       units="px"
       originx="0"
       originy="0"
       spacingx="1"
       spacingy="1"
       empcolor="#0099e5"
       empopacity="0.30196078"
       color="#0099e5"
       opacity="0.14901961"
       empspacing="10"
       enabled="true"
       visible="true" />
    <sodipodi:guide
       position="-26,980"
       orientation="0,-1"
       id="guide5"
       inkscape:locked="false" />
    <sodipodi:guide
       position="20,987"
       orientation="1,0"
       id="guide6"
       inkscape:locked="false" />
    <sodipodi:guide
       position="1024.4927,20"
       orientation="0,-1"
       id="guide7"
       inkscape:locked="false" />
    <sodipodi:guide
       position="980,40"
       orientation="1,0"
       id="guide8"
       inkscape:locked="false" />
    <sodipodi:guide
       position="-380,500"
       orientation="0,-1"
       id="guide9"
       inkscape:locked="false" />
    <sodipodi:guide
       position="500,960"
       orientation="1,0"
       id="guide10"
       inkscape:locked="false" />
  </sodipodi:namedview>
  <defs
     id="defs1">
    <linearGradient
       id="linearGradient12"
       inkscape:collect="always"
       inkscape:label="Sunset">
      <stop
         style="stop-color:#c0c0ff;stop-opacity:1;"
         offset="0"
         id="stop12" />
      <stop
         style="stop-color:#ffc0ff;stop-opacity:1;"
         offset="0.30000001"
         id="stop18" />
      <stop
         style="stop-color:#ffc0c0;stop-opacity:1;"
         offset="0.89999998"
         id="stop19" />
      <stop
         style="stop-color:#ffffc0;stop-opacity:0.98000002;"
         offset="1"
         id="stop13" />
    </linearGradient>
    <linearGradient
       inkscape:collect="always"
       xlink:href="#linearGradient1"
       id="linearGradient2"
       x1="290"
       y1="114.08804"
       x2="290"
       y2="525.91199"
       gradientUnits="userSpaceOnUse"
       gradientTransform="matrix(1.4554283,0,0,1.4554283,-99.559871,175.70603)" />
    <linearGradient
       inkscape:collect="always"
       xlink:href="#linearGradient12"
       id="linearGradient16"
       x1="409.99979"
       y1="105.00022"
       x2="409.99979"
       y2="894.99976"
       gradientUnits="userSpaceOnUse" />
  </defs>
  <path
     style="fill:url(#linearGradient16);stroke:#2040c0;stroke-width:10;stroke-linecap:round;stroke-linejoin:round;stroke-dasharray:none;stroke-opacity:1"
     d="M 190.00001,20 H 90.000014 c -20,0 -40,10 -50,20 -10,10 -20,30 -20,50 v 820 c 0,20 10,40 20,50 10,10 30,20 50,20 l 715.999996,0 z"
     id="path12"
     transform="translate(-1.398754e-5)"
     sodipodi:nodetypes="cczcszscc"
     inkscape:label="background" />
  <g
     inkscape:groupmode="layer"
     id="layer2"
     inkscape:label="iconography">
    <g
       id="g3790"
       transform="matrix(-1.0107442,0,0,1.4939233,1098.4502,36.99469)"
       inkscape:label="pen"
       style="stroke:#2040c0;stroke-opacity:1">
      <g
         id="g3786"
         style="display:inline;fill:#80c0ff;fill-opacity:1;stroke:#2040c0;stroke-opacity:1;stroke-width:8.13795381;stroke-dasharray:none;stroke-linejoin:round;stroke-linecap:round"
         inkscape:label="g3786">
        <path
           id="path3766"
           style="fill:#80c0ff;stroke:#2040c0;stroke-width:8.13795381;fill-opacity:1;stroke-opacity:1;stroke-dasharray:none;stroke-linejoin:round;stroke-linecap:round"
           d="m 289.32,629.04 c 0,0 0.37746,1.5098 2.2648,1.3211 1.8873,-0.18873 3.9633,-1.5098 4.5295,-3.2084 0.56619,-1.6986 1.5098,-3.2084 3.2084,-4.7183 1.6986,-1.5098 17.363,-12.079 18.873,-12.834 1.5098,-0.75492 26.8,-11.324 28.121,-11.89 1.3211,-0.56619 20.949,-3.2084 22.27,-4.5295 1.3211,-1.3211 15.287,-18.873 15.287,-18.873 l 1.1324,-0.37746 1.6986,-2.076 -0.37746,-1.1324 1.5098,-2.2648 1.6986,0.94365 2.831,-4.3408 -1.6986,-1.3211 2.2648,-2.6422 2.4535,2.4535 2.831,-4.1521 -2.4535,-2.076 1.3211,-2.076 3.2084,1.8873 3.0197,-3.7746 -2.076,-2.4535 2.076,-3.2084 3.0197,3.3972 3.0197,-4.1521 -2.6422,-3.2084 1.8873,-2.2648 3.7746,3.7746 3.0197,-3.9634 -3.9634,-3.7746 0.37746,-0.18873 10.003,7.9267 5.2845,-3.2084 2.076,-0.37746 -50.014,-46.616 -2.831,5.0957 -0.18873,1.6986 3.7746,4.1521 -48.315,43.408 c 0,0 -8.1154,6.983 -8.6816,7.9267 -0.56619,0.94365 -5.4732,8.3042 -5.8506,9.2478 -0.37746,0.94365 -6.6056,16.797 -7.1718,18.496 -0.56619,1.6986 -5.6619,13.4 -6.983,15.476 -1.3211,2.076 -10.003,17.929 -10.003,17.929 0,0 -3.3972,2.076 -3.7746,2.6422 -0.37746,0.5662 -1.8873,2.6422 -1.8873,3.7746 0,1.1324 -0.56619,2.6422 2.076,4.1521 z" />
        <path
           id="path3784"
           d="m 216.06,641.11 c 0,0 6.2723,-8.9413 7.2064,-9.6086 0.93417,-0.66727 35.232,-42.171 35.232,-42.171 0,0 -1.7349,-0.66727 -1.3345,-1.7349 0.40035,-1.0676 2.8025,-3.0694 3.6032,-2.5356 0.80072,0.53381 2.8025,0.66726 2.8025,2.2687 0,1.60144 1.7349,2.1352 -0.13346,2.4022 -1.8683,0.26691 -3.3363,-0.13345 -3.3363,-0.13345 l -42.972,52.313 -1.0676,-0.80071 z"
           style="fill:#80c0ff;stroke:#2040c0;stroke-width:8.13795381;fill-opacity:1;stroke-opacity:1;stroke-dasharray:none;stroke-linejoin:round;stroke-linecap:round"
           transform="translate(71.497,-11.37)" />
        <path
           id="path3768"
           style="fill:#80c0ff;stroke:#2040c0;stroke-width:8.13795381;fill-opacity:1;stroke-opacity:1;stroke-dasharray:none;stroke-linejoin:round;stroke-linecap:round"
           d="m 430.31,541.47 c 0,0 3.0197,-3.0197 3.2084,-4.5295 0.18873,-1.5098 15.665,-15.287 15.665,-15.287 0,0 -24.346,-26.988 -28.498,-30.763 -4.1521,-3.7746 -23.214,-18.684 -23.214,-18.684 l -11.89,13.777 c 0,0 -0.75492,2.6422 -2.076,2.831 -1.3211,0.18873 -2.2648,0.37746 -2.2648,0.37746 l -2.831,3.5859 0.5662,1.6986 51.335,46.994 z" />
        <path
           id="path3770"
           style="fill:#80c0ff;stroke:#2040c0;stroke-width:8.13795381;fill-opacity:1;stroke-opacity:1;stroke-dasharray:none;stroke-linejoin:round;stroke-linecap:round"
           d="M 449.56,521.65 586.2,383.88 c 0,0 -23.025,-32.084 -30.574,-39.633 -7.5492,-7.5492 -25.29,-18.496 -25.29,-18.496 l -132.12,145.7 c 0,0 23.78,20.005 25.667,21.893 1.8873,1.8873 24.912,28.687 25.667,28.31 z" />
        <path
           id="path3778"
           style="fill:#80c0ff;stroke:#2040c0;stroke-width:8.13795381;fill-opacity:1;stroke-opacity:1;stroke-dasharray:none;stroke-linejoin:round;stroke-linecap:round"
           d="m 672.33,176.11 -139.2,146.82 c 0,0 22.225,14.389 31.45,25.165 6.943,8.1102 23.808,33.215 23.808,33.215 l 136.38,-156.16 c 0,0 183.7,-218.7 171.64,-233.83 -20.58,-25.811 -223.33,184.39 -224.08,184.79 z"
           inkscape:transform-center-x="-32.461674"
           inkscape:transform-center-y="-15.853376"
           sodipodi:nodetypes="ccsccsc" />
        <path
           id="path3780"
           style="fill:#80c0ff;stroke:#2040c0;stroke-width:8.13795381;fill-opacity:1;stroke-opacity:1;stroke-dasharray:none;stroke-linejoin:round;stroke-linecap:round"
           d="m 672.64,178.54 c 0,0 16.231,8.6816 26.045,19.251 9.814,10.5694 26.045,26.8 26.045,26.8 l -2.6422,0.75492 -50.202,-44.163 0.75492,-2.6422 z" />
        <path
           id="path3782"
           style="fill:#80c0ff;stroke:#2040c0;stroke-width:8.13795381;fill-opacity:1;stroke-opacity:1;stroke-dasharray:none;stroke-linejoin:round;stroke-linecap:round"
           d="m 793.79,59.108 c 0,0 11.108,6.0782 17.825,13.478 6.7167,7.3996 17.825,18.763 17.825,18.763 l -1.8083,0.52854 -34.358,-30.92 0.51666,-1.8499 z" />
      </g>
    </g>
  </g>
  <g
     inkscape:label="e-to-pi"
     inkscape:groupmode="layer"
     id="layer1"
     style="display:inline">
    <path
       style="font-size:1403.11px;line-height:0;font-family:Symbola;-inkscape-font-specification:Symbola;text-align:center;text-anchor:middle;fill:#101080;stroke-width:5;stroke-linejoin:round;stroke:#80c0ff;stroke-opacity:1;stroke-dasharray:none"
       d="m 579.315,748.28263 q 0,21.92359 -23.29381,61.66011 -75.36236,129.48622 -223.34661,129.48622 -101.39662,0 -178.1292,-41.79185 -94.545497,-51.38342 -94.545497,-144.55869 0,-67.82612 55.494097,-114.41376 45.90252,-39.0514 117.83931,-55.49409 -63.71544,-15.07247 -103.45195,-55.4941 -43.84719,-44.5323 -43.84719,-106.87752 0,-84.26881 90.43482,-124.69044 67.14101,-30.83005 163.74184,-30.83005 71.93679,0 131.54156,19.18315 84.26882,27.40449 84.26882,83.5837 0,22.6087 -17.12781,38.36628 -16.4427,15.07248 -39.0514,15.07248 -26.71938,0 -47.95786,-32.20028 -35.62584,-52.75365 -41.79185,-58.91966 -32.20028,-32.20028 -86.32415,-32.20028 -138.39269,0 -138.39269,132.91179 0,128.80111 136.33735,128.80111 15.07247,0 43.16208,-7.53624 28.0896,-7.53623 43.16207,-7.53623 58.91966,0 58.91966,38.36629 0,37.68117 -59.60477,37.68117 -14.38736,0 -43.16208,-7.53623 -28.0896,-7.53624 -42.47696,-7.53624 -153.46515,0 -153.46515,140.44802 0,156.20561 174.70363,156.20561 139.76291,0 198.68257,-151.40982 7.53623,-19.86826 18.49803,-19.86826 19.18314,0 19.18314,17.12781 z"
       id="text8"
       inkscape:label="e"
       aria-label="ε" />
    <path
       style="font-size:713.037px;line-height:0;font-family:Symbola;-inkscape-font-specification:Symbola;text-align:center;text-anchor:middle;fill:#101080;stroke-width:5;stroke-linejoin:round;stroke:#80c0ff;stroke-opacity:1;stroke-dasharray:none"
       d="m 940.00006,120.54077 h -92.95941 v 56.40234 q 0,127.42751 37.60156,196.01554 7.31141,13.23018 7.31141,18.45262 0,22.97873 -28.20117,22.97873 -27.85301,0 -40.73502,-68.58803 -8.3559,-44.21665 -8.3559,-94.70023 V 120.54077 h -79.38107 l -27.85301,245.10646 q -5.5706,48.74277 -32.03096,48.74277 -25.41587,0 -25.41587,-21.58608 0,-3.82979 3.48163,-14.27467 35.51258,-108.27857 58.49131,-257.98848 h -66.49905 q -19.84527,0 -41.43135,14.27467 -21.23792,14.27466 -18.45262,14.27466 -5.5706,0 -5.5706,-5.5706 0,-13.57834 20.88976,-34.81626 23.32689,-22.978729 58.49131,-22.978729 h 280.61905 z"
       id="text12"
       inkscape:label="pi"
       aria-label="π" />
  </g>
  <metadata
     id="metadata22">
    <rdf:RDF>
      <cc:Work
         rdf:about="">
        <cc:license
           rdf:resource="http://creativecommons.org/licenses/by-nc-nd/4.0/" />
        <dc:title>EpilogLite Logo</dc:title>
        <dc:date>2024-12-17</dc:date>
        <dc:creator>
          <cc:Agent>
            <dc:title>Jen Eleniel</dc:title>
          </cc:Agent>
        </dc:creator>
        <dc:rights>
          <cc:Agent>
            <dc:title>The EpilogLite logo by Jen Eleniel is licensed under Creative Commons Attribution-NonCommercial-NoDerivatives 4.0 International 🅭🅯🄏⊜</dc:title>
          </cc:Agent>
        </dc:rights>
      </cc:Work>
      <cc:License
         rdf:about="http://creativecommons.org/licenses/by-nc-nd/4.0/">
        <cc:permits
           rdf:resource="http://creativecommons.org/ns#Reproduction" />
        <cc:permits
           rdf:resource="http://creativecommons.org/ns#Distribution" />
        <cc:requires
           rdf:resource="http://creativecommons.org/ns#Notice" />
        <cc:requires
           rdf:resource="http://creativecommons.org/ns#Attribution" />
        <cc:prohibits
           rdf:resource="http://creativecommons.org/ns#CommercialUse" />
      </cc:License>
    </rdf:RDF>
  </metadata>
</svg>
